<?xml version="1.0" encoding="utf-8"?>
<!-- Generator: Adobe Illustrator 25.4.1, SVG Export Plug-In . SVG Version: 6.00 Build 0)  -->
<svg version="1.1" id="Layer_1" xmlns="http://www.w3.org/2000/svg" xmlns:xlink="http://www.w3.org/1999/xlink" x="0px" y="0px"
	 viewBox="0 0 595.3 841.9" style="enable-background:new 0 0 595.3 841.9;" xml:space="preserve">
<style type="text/css">
	.st0{fill:none;stroke:#FFFFFF;stroke-width:7;stroke-miterlimit:10;}
	.st1{fill:#FFFFFF;}
</style>
<g>
	<polygon class="st0" points="558,566.2 301.8,717.9 42.3,571.9 38.9,274.2 295.1,122.4 554.7,268.4 	"/>
	<g>
		<path class="st1" d="M152.5,547.7c-15.5,0-29.7-3.3-42.6-9.8c-13-6.5-23.6-15.9-31.8-28l29.4-40c6.3,9.4,13,16.5,19.9,21.3
			c7,4.8,14.5,7.2,22.5,7.2c21.6,0,32.3-14.3,32.3-43V331.9h-80.3v-48.2h132.9V452c0,32.1-7,56.1-20.9,71.9
			C200,539.8,179.5,547.7,152.5,547.7z"/>
		<path class="st1" d="M295.6,543.2V283.7h52.6v259.5H295.6z M343,483.9l-2.9-69.3l109.4-130.9h58.8l-98.6,120.5l-29.4,35.6
			L343,483.9z M452,543.2l-81.3-113.1l34.6-42.6l108.4,155.7H452z"/>
	</g>
	<line class="st0" x1="96.5" y1="185.1" x2="295.6" y2="63.7"/>
	<line class="st0" x1="503.8" y1="186.6" x2="288.5" y2="62.3"/>
	<line class="st0" x1="163.1" y1="90.3" x2="296" y2="7.7"/>
	<line class="st0" x1="431.8" y1="90.7" x2="288.1" y2="7.5"/>
	<line class="st0" x1="497.8" y1="657.5" x2="299.8" y2="778.4"/>
	<line class="st0" x1="90.7" y1="658.1" x2="307" y2="779.8"/>
	<line class="st0" x1="433.9" y1="755.3" x2="300.1" y2="834.4"/>
	<line class="st0" x1="168.2" y1="755.7" x2="307.9" y2="834.5"/>
</g>
</svg>
